<?xml version="1.0" encoding="UTF-8" standalone="no"?>
<!-- Created with Inkscape (http://www.inkscape.org/) -->

<svg
   xmlns:dc="http://purl.org/dc/elements/1.1/"
   xmlns:cc="http://creativecommons.org/ns#"
   xmlns:rdf="http://www.w3.org/1999/02/22-rdf-syntax-ns#"
   xmlns:svg="http://www.w3.org/2000/svg"
   xmlns="http://www.w3.org/2000/svg"
   version="1.1"
   width="16"
   height="16"
   id="svg3060">
  <defs
     id="defs3062">
    <clipPath
       id="clipPath16">
      <path
         d="m 0,152.938 163.529,0 L 163.529,0 0,0 0,152.938 z"
         id="path18" />
    </clipPath>
    <clipPath
       id="clipPath28">
      <path
         d="m 43.668,116.902 85.039,0 0,-87.8751 -85.039,0 0,87.8751 z"
         id="path30" />
    </clipPath>
    <clipPath
       id="clipPath32">
      <path
         d="M 59.494,78.21 C 37.312,52.853 36.348,73.851 70.137,110.097 91.339,131.313 120.464,97.413 126.176,83.347 131.884,69.272 128.955,61.028 106.815,41.013 84.487,20.829 79.123,29.251 73.593,43.454 69.055,55.126 60.743,73.79 76.875,75.132 87.439,76.005 89.91,60.897 93.137,55.755 102.48,40.903 110.051,130.218 59.494,78.21"
         id="path34" />
    </clipPath>
  </defs>
  <metadata
     id="metadata3065">
    <rdf:RDF>
      <cc:Work
         rdf:about="">
        <dc:format>image/svg+xml</dc:format>
        <dc:type
           rdf:resource="http://purl.org/dc/dcmitype/StillImage" />
        <dc:title></dc:title>
      </cc:Work>
    </rdf:RDF>
  </metadata>
  <g
     id="layer1">
    <g
       transform="matrix(0.10525582,0,0,-0.10525582,-1.2817173,15.495068)"
       id="g12"
       style="fill:#ffffff">
      <g
         clip-path="url(#clipPath16)"
         id="g14"
         style="fill:#ffffff">
        <g
           transform="translate(59.4941,78.21)"
           id="g20"
           style="fill:#ffffff">
          <path
             d="M 0,0 C -22.183,-25.357 -23.146,-4.359 10.643,31.887 31.845,53.104 60.97,19.203 66.682,5.137 72.39,-8.938 69.461,-17.182 47.321,-37.197 24.993,-57.381 19.629,-48.959 14.099,-34.756 9.561,-23.084 1.249,-4.42 17.381,-3.078 27.945,-2.205 30.416,-17.313 33.643,-22.455 42.986,-37.307 50.557,52.008 0,0"
             id="path22"
             style="fill:#ffffff;fill-opacity:1;fill-rule:evenodd;stroke:none" />
        </g>
        <g
           id="g24"
           style="fill:#ffffff">
          <g
             id="g26"
             style="fill:#ffffff" />
          <g
             id="g42"
             style="fill:#ffffff">
            <g
               clip-path="url(#clipPath28)"
               id="g44"
               style="opacity:0.30000299;fill:#ffffff">
              <g
                 id="g46"
                 style="fill:#ffffff">
                <g
                   clip-path="url(#clipPath32)"
                   id="g48"
                   style="fill:#ffffff">
                  <g
                     id="g50"
                     style="fill:#ffffff">
                    <g
                       id="g52"
                       style="fill:#ffffff">
                      <path
                         d="M 59.494,78.21 C 37.312,52.853 36.348,73.851 70.137,110.097 91.339,131.313 120.464,97.413 126.176,83.347 131.884,69.272 128.955,61.028 106.815,41.013 84.487,20.829 79.123,29.251 73.593,43.454 69.055,55.126 60.743,73.79 76.875,75.132 87.439,76.005 89.91,60.897 93.137,55.755 102.48,40.903 110.051,130.218 59.494,78.21"
                         id="path54"
                         style="fill:#ffffff;fill-rule:evenodd;stroke:none" />
                    </g>
                  </g>
                </g>
              </g>
            </g>
          </g>
        </g>
      </g>
    </g>
  </g>
</svg>
